<mxfile host="app.diagrams.net" modified="2021-11-09T07:39:34.530Z" agent="5.0 (Windows NT 10.0; Win64; x64) AppleWebKit/537.36 (KHTML, like Gecko) Chrome/95.0.4638.69 Safari/537.36" etag="KGcfbzwoZ3JXxu5LGB2C" version="15.7.0" type="github">
  <diagram id="C5RBs43oDa-KdzZeNtuy" name="Page-1">
    <mxGraphModel dx="1248" dy="677" grid="1" gridSize="10" guides="1" tooltips="1" connect="1" arrows="1" fold="1" page="1" pageScale="1" pageWidth="827" pageHeight="1169" background="#ffffff" math="0" shadow="0">
      <root>
        <mxCell id="WIyWlLk6GJQsqaUBKTNV-0" />
        <mxCell id="WIyWlLk6GJQsqaUBKTNV-1" parent="WIyWlLk6GJQsqaUBKTNV-0" />
        <mxCell id="QmGK-IJUaO_-9F__BT_G-2" value="&lt;h4&gt;&lt;font size=&quot;1&quot;&gt;&lt;b&gt;uc USE CASE SISTEM ANJURAN&lt;/b&gt;&lt;/font&gt;&lt;/h4&gt;" style="shape=umlFrame;whiteSpace=wrap;html=1;hachureGap=4;pointerEvents=0;fontFamily=Times New Roman;fontSize=20;width=170;height=20;fillColor=#F5AB50;strokeColor=#909090;fontColor=#1A1A1A;" vertex="1" parent="WIyWlLk6GJQsqaUBKTNV-1">
          <mxGeometry x="80" y="40" width="520" height="840" as="geometry" />
        </mxCell>
        <mxCell id="QmGK-IJUaO_-9F__BT_G-14" value="&lt;span style=&quot;background-color: rgb(255 , 255 , 255)&quot;&gt;System&lt;/span&gt;" style="edgeStyle=none;curved=1;rounded=0;hachureGap=4;orthogonalLoop=1;jettySize=auto;html=1;entryX=0;entryY=0.5;entryDx=0;entryDy=0;fontFamily=Times New Roman;fontSize=10;endArrow=none;startSize=14;endSize=14;sourcePerimeterSpacing=8;targetPerimeterSpacing=8;endFill=0;labelBackgroundColor=#EEEEEE;strokeColor=#182E3E;fontColor=#1A1A1A;" edge="1" parent="WIyWlLk6GJQsqaUBKTNV-1" source="QmGK-IJUaO_-9F__BT_G-3" target="QmGK-IJUaO_-9F__BT_G-5">
          <mxGeometry x="-0.0256" y="10" relative="1" as="geometry">
            <mxPoint as="offset" />
          </mxGeometry>
        </mxCell>
        <mxCell id="QmGK-IJUaO_-9F__BT_G-15" value="&lt;span style=&quot;background-color: rgb(255 , 255 , 255)&quot;&gt;System&lt;/span&gt;" style="edgeStyle=none;curved=1;rounded=0;hachureGap=4;orthogonalLoop=1;jettySize=auto;html=1;entryX=0;entryY=0.5;entryDx=0;entryDy=0;fontFamily=Times New Roman;fontSize=10;endArrow=none;endFill=0;startSize=14;endSize=14;sourcePerimeterSpacing=8;targetPerimeterSpacing=8;labelBackgroundColor=#EEEEEE;strokeColor=#182E3E;fontColor=#1A1A1A;" edge="1" parent="WIyWlLk6GJQsqaUBKTNV-1" source="QmGK-IJUaO_-9F__BT_G-3" target="QmGK-IJUaO_-9F__BT_G-6">
          <mxGeometry x="-0.0733" y="14" relative="1" as="geometry">
            <mxPoint as="offset" />
          </mxGeometry>
        </mxCell>
        <mxCell id="QmGK-IJUaO_-9F__BT_G-35" style="edgeStyle=none;rounded=0;hachureGap=4;orthogonalLoop=1;jettySize=auto;html=1;entryX=0;entryY=0.5;entryDx=0;entryDy=0;fontFamily=Times New Roman;fontSize=9;endArrow=none;endFill=0;startSize=14;endSize=14;sourcePerimeterSpacing=8;targetPerimeterSpacing=8;labelBackgroundColor=#EEEEEE;strokeColor=#182E3E;fontColor=#1A1A1A;" edge="1" parent="WIyWlLk6GJQsqaUBKTNV-1" source="QmGK-IJUaO_-9F__BT_G-3" target="QmGK-IJUaO_-9F__BT_G-7">
          <mxGeometry relative="1" as="geometry" />
        </mxCell>
        <mxCell id="QmGK-IJUaO_-9F__BT_G-40" style="edgeStyle=none;rounded=0;hachureGap=4;jumpSize=6;orthogonalLoop=1;jettySize=auto;html=1;fontFamily=Times New Roman;fontSize=9;endArrow=none;endFill=0;startSize=10;endSize=10;sourcePerimeterSpacing=8;targetPerimeterSpacing=8;entryX=0.5;entryY=0;entryDx=0;entryDy=0;labelBackgroundColor=#EEEEEE;strokeColor=#182E3E;fontColor=#1A1A1A;" edge="1" parent="WIyWlLk6GJQsqaUBKTNV-1" source="QmGK-IJUaO_-9F__BT_G-3" target="QmGK-IJUaO_-9F__BT_G-8">
          <mxGeometry relative="1" as="geometry">
            <mxPoint x="267" y="322.64864864864865" as="targetPoint" />
          </mxGeometry>
        </mxCell>
        <mxCell id="QmGK-IJUaO_-9F__BT_G-53" style="edgeStyle=none;rounded=0;hachureGap=4;jumpSize=6;orthogonalLoop=1;jettySize=auto;html=1;entryX=0;entryY=0.5;entryDx=0;entryDy=0;fontFamily=Times New Roman;fontSize=9;endArrow=none;endFill=0;startSize=10;endSize=8;sourcePerimeterSpacing=8;targetPerimeterSpacing=8;labelBackgroundColor=#EEEEEE;strokeColor=#182E3E;fontColor=#1A1A1A;" edge="1" parent="WIyWlLk6GJQsqaUBKTNV-1" target="QmGK-IJUaO_-9F__BT_G-9">
          <mxGeometry relative="1" as="geometry">
            <mxPoint x="105" y="190" as="sourcePoint" />
            <Array as="points">
              <mxPoint x="150" y="537" />
            </Array>
          </mxGeometry>
        </mxCell>
        <mxCell id="QmGK-IJUaO_-9F__BT_G-54" style="edgeStyle=none;rounded=0;hachureGap=4;jumpSize=6;orthogonalLoop=1;jettySize=auto;html=1;entryX=0;entryY=0.5;entryDx=0;entryDy=0;fontFamily=Times New Roman;fontSize=9;endArrow=none;endFill=0;startSize=10;endSize=8;sourcePerimeterSpacing=8;targetPerimeterSpacing=8;labelBackgroundColor=#EEEEEE;strokeColor=#182E3E;fontColor=#1A1A1A;" edge="1" parent="WIyWlLk6GJQsqaUBKTNV-1" target="QmGK-IJUaO_-9F__BT_G-10">
          <mxGeometry relative="1" as="geometry">
            <mxPoint x="105" y="190" as="sourcePoint" />
            <Array as="points">
              <mxPoint x="140" y="550" />
            </Array>
          </mxGeometry>
        </mxCell>
        <mxCell id="QmGK-IJUaO_-9F__BT_G-56" style="edgeStyle=none;rounded=0;hachureGap=4;jumpSize=6;orthogonalLoop=1;jettySize=auto;html=1;entryX=0;entryY=0.5;entryDx=0;entryDy=0;fontFamily=Times New Roman;fontSize=9;endArrow=none;endFill=0;startSize=10;endSize=8;sourcePerimeterSpacing=8;targetPerimeterSpacing=8;labelBackgroundColor=#EEEEEE;strokeColor=#182E3E;fontColor=#1A1A1A;" edge="1" parent="WIyWlLk6GJQsqaUBKTNV-1" target="QmGK-IJUaO_-9F__BT_G-11">
          <mxGeometry relative="1" as="geometry">
            <mxPoint x="105" y="190" as="sourcePoint" />
            <Array as="points">
              <mxPoint x="130" y="560" />
            </Array>
          </mxGeometry>
        </mxCell>
        <mxCell id="QmGK-IJUaO_-9F__BT_G-58" style="edgeStyle=none;rounded=0;hachureGap=4;jumpSize=6;orthogonalLoop=1;jettySize=auto;html=1;entryX=0;entryY=0.5;entryDx=0;entryDy=0;fontFamily=Times New Roman;fontSize=9;endArrow=none;endFill=0;startSize=10;endSize=8;sourcePerimeterSpacing=8;targetPerimeterSpacing=8;labelBackgroundColor=#EEEEEE;strokeColor=#182E3E;fontColor=#1A1A1A;" edge="1" parent="WIyWlLk6GJQsqaUBKTNV-1" target="QmGK-IJUaO_-9F__BT_G-13">
          <mxGeometry relative="1" as="geometry">
            <mxPoint x="105" y="190" as="sourcePoint" />
            <Array as="points">
              <mxPoint x="120" y="570" />
            </Array>
          </mxGeometry>
        </mxCell>
        <mxCell id="QmGK-IJUaO_-9F__BT_G-3" value="User" style="shape=umlActor;verticalLabelPosition=bottom;verticalAlign=top;html=1;hachureGap=4;pointerEvents=0;fontFamily=Times New Roman;fontSize=10;fillColor=#F5AB50;strokeColor=#909090;fontColor=#1A1A1A;" vertex="1" parent="WIyWlLk6GJQsqaUBKTNV-1">
          <mxGeometry x="90" y="100" width="30" height="60" as="geometry" />
        </mxCell>
        <mxCell id="QmGK-IJUaO_-9F__BT_G-16" style="edgeStyle=none;curved=1;rounded=0;hachureGap=4;orthogonalLoop=1;jettySize=auto;html=1;entryX=1;entryY=0.5;entryDx=0;entryDy=0;fontFamily=Times New Roman;fontSize=10;endArrow=none;endFill=0;startSize=14;endSize=14;sourcePerimeterSpacing=8;targetPerimeterSpacing=8;labelBackgroundColor=#EEEEEE;strokeColor=#182E3E;fontColor=#1A1A1A;" edge="1" parent="WIyWlLk6GJQsqaUBKTNV-1" source="QmGK-IJUaO_-9F__BT_G-4" target="QmGK-IJUaO_-9F__BT_G-6">
          <mxGeometry relative="1" as="geometry" />
        </mxCell>
        <mxCell id="QmGK-IJUaO_-9F__BT_G-52" style="edgeStyle=none;rounded=0;hachureGap=4;jumpSize=6;orthogonalLoop=1;jettySize=auto;html=1;entryX=0.5;entryY=0;entryDx=0;entryDy=0;fontFamily=Times New Roman;fontSize=9;endArrow=none;endFill=0;startSize=10;endSize=8;sourcePerimeterSpacing=8;targetPerimeterSpacing=8;labelBackgroundColor=#EEEEEE;strokeColor=#182E3E;fontColor=#1A1A1A;" edge="1" parent="WIyWlLk6GJQsqaUBKTNV-1" target="QmGK-IJUaO_-9F__BT_G-13">
          <mxGeometry relative="1" as="geometry">
            <mxPoint x="570" y="260" as="sourcePoint" />
          </mxGeometry>
        </mxCell>
        <mxCell id="QmGK-IJUaO_-9F__BT_G-59" style="edgeStyle=none;curved=0;rounded=1;sketch=0;hachureGap=4;orthogonalLoop=1;jettySize=auto;html=1;entryX=1;entryY=0;entryDx=0;entryDy=0;fontFamily=Architects Daughter;fontSource=https%3A%2F%2Ffonts.googleapis.com%2Fcss%3Ffamily%3DArchitects%2BDaughter;fontSize=16;fontColor=#1A1A1A;endArrow=none;startSize=14;endSize=14;sourcePerimeterSpacing=8;targetPerimeterSpacing=8;strokeColor=#182E3E;endFill=0;" edge="1" parent="WIyWlLk6GJQsqaUBKTNV-1" target="QmGK-IJUaO_-9F__BT_G-12">
          <mxGeometry relative="1" as="geometry">
            <mxPoint x="560" y="260" as="sourcePoint" />
          </mxGeometry>
        </mxCell>
        <mxCell id="QmGK-IJUaO_-9F__BT_G-4" value="Admin" style="shape=umlActor;verticalLabelPosition=bottom;verticalAlign=top;html=1;hachureGap=4;pointerEvents=0;fontFamily=Times New Roman;fontSize=10;fillColor=#F5AB50;strokeColor=#909090;fontColor=#1A1A1A;" vertex="1" parent="WIyWlLk6GJQsqaUBKTNV-1">
          <mxGeometry x="560" y="185" width="30" height="60" as="geometry" />
        </mxCell>
        <mxCell id="QmGK-IJUaO_-9F__BT_G-5" value="Register" style="ellipse;whiteSpace=wrap;html=1;hachureGap=4;pointerEvents=0;fontFamily=Times New Roman;fontSize=10;fillColor=#F5AB50;strokeColor=#909090;fontColor=#1A1A1A;" vertex="1" parent="WIyWlLk6GJQsqaUBKTNV-1">
          <mxGeometry x="430" y="90" width="80" height="50" as="geometry" />
        </mxCell>
        <mxCell id="QmGK-IJUaO_-9F__BT_G-62" value="&lt;span style=&quot;font-family: &amp;#34;times new roman&amp;#34; ; font-size: 9px ; background-color: rgb(255 , 255 , 255)&quot;&gt;&amp;lt;&amp;lt;include&amp;gt;&amp;gt;&lt;/span&gt;" style="edgeStyle=none;curved=0;rounded=1;sketch=0;hachureGap=4;orthogonalLoop=1;jettySize=auto;html=1;exitX=0.5;exitY=0;exitDx=0;exitDy=0;entryX=0.5;entryY=1;entryDx=0;entryDy=0;labelBackgroundColor=#FFFFFF;fontFamily=Architects Daughter;fontSource=https%3A%2F%2Ffonts.googleapis.com%2Fcss%3Ffamily%3DArchitects%2BDaughter;fontSize=16;fontColor=#1A1A1A;endArrow=block;endFill=0;startSize=14;endSize=8;sourcePerimeterSpacing=8;targetPerimeterSpacing=8;strokeColor=#182E3E;dashed=1;" edge="1" parent="WIyWlLk6GJQsqaUBKTNV-1" source="QmGK-IJUaO_-9F__BT_G-6" target="QmGK-IJUaO_-9F__BT_G-5">
          <mxGeometry relative="1" as="geometry" />
        </mxCell>
        <mxCell id="QmGK-IJUaO_-9F__BT_G-6" value="Login" style="ellipse;whiteSpace=wrap;html=1;hachureGap=4;pointerEvents=0;fontFamily=Times New Roman;fontSize=10;fillColor=#F5AB50;strokeColor=#909090;fontColor=#1A1A1A;" vertex="1" parent="WIyWlLk6GJQsqaUBKTNV-1">
          <mxGeometry x="430" y="190" width="80" height="50" as="geometry" />
        </mxCell>
        <mxCell id="QmGK-IJUaO_-9F__BT_G-36" value="&lt;span style=&quot;background-color: rgb(255 , 255 , 255)&quot;&gt;&amp;lt;&amp;lt;include&amp;gt;&amp;gt;&lt;/span&gt;" style="edgeStyle=none;rounded=0;hachureGap=4;orthogonalLoop=1;jettySize=auto;html=1;exitX=1;exitY=0.5;exitDx=0;exitDy=0;entryX=0;entryY=1;entryDx=0;entryDy=0;fontFamily=Times New Roman;fontSize=9;endArrow=open;endFill=0;startSize=10;endSize=8;sourcePerimeterSpacing=8;targetPerimeterSpacing=8;dashed=1;jumpSize=6;labelBackgroundColor=#EEEEEE;strokeColor=#182E3E;fontColor=#1A1A1A;" edge="1" parent="WIyWlLk6GJQsqaUBKTNV-1" source="QmGK-IJUaO_-9F__BT_G-7" target="QmGK-IJUaO_-9F__BT_G-6">
          <mxGeometry relative="1" as="geometry" />
        </mxCell>
        <mxCell id="QmGK-IJUaO_-9F__BT_G-7" value="Kelola Profil" style="ellipse;whiteSpace=wrap;html=1;hachureGap=4;pointerEvents=0;fontFamily=Times New Roman;fontSize=10;fillColor=#F5AB50;strokeColor=#909090;fontColor=#1A1A1A;" vertex="1" parent="WIyWlLk6GJQsqaUBKTNV-1">
          <mxGeometry x="254" y="210" width="80" height="50" as="geometry" />
        </mxCell>
        <mxCell id="QmGK-IJUaO_-9F__BT_G-46" value="&lt;span style=&quot;background-color: rgb(255 , 255 , 255)&quot;&gt;&amp;lt;&amp;lt;include&amp;gt;&amp;gt;&lt;/span&gt;" style="edgeStyle=none;rounded=0;hachureGap=4;jumpSize=6;orthogonalLoop=1;jettySize=auto;html=1;exitX=1;exitY=0.5;exitDx=0;exitDy=0;entryX=0.208;entryY=0.915;entryDx=0;entryDy=0;fontFamily=Times New Roman;fontSize=9;endArrow=open;endFill=0;startSize=10;endSize=8;sourcePerimeterSpacing=8;targetPerimeterSpacing=8;dashed=1;entryPerimeter=0;labelBackgroundColor=#EEEEEE;strokeColor=#182E3E;fontColor=#1A1A1A;" edge="1" parent="WIyWlLk6GJQsqaUBKTNV-1" source="QmGK-IJUaO_-9F__BT_G-8" target="QmGK-IJUaO_-9F__BT_G-6">
          <mxGeometry relative="1" as="geometry" />
        </mxCell>
        <mxCell id="QmGK-IJUaO_-9F__BT_G-8" value="Kelola Pelayanan Pengajuan" style="ellipse;whiteSpace=wrap;html=1;hachureGap=4;pointerEvents=0;fontFamily=Times New Roman;fontSize=10;fillColor=#F5AB50;strokeColor=#909090;fontColor=#1A1A1A;" vertex="1" parent="WIyWlLk6GJQsqaUBKTNV-1">
          <mxGeometry x="260" y="310" width="80" height="50" as="geometry" />
        </mxCell>
        <mxCell id="QmGK-IJUaO_-9F__BT_G-47" value="&lt;span style=&quot;background-color: rgb(255 , 255 , 255)&quot;&gt;&amp;lt;&amp;lt;include&amp;gt;&amp;gt;&lt;/span&gt;" style="edgeStyle=none;rounded=0;hachureGap=4;jumpSize=6;orthogonalLoop=1;jettySize=auto;html=1;exitX=0.5;exitY=0;exitDx=0;exitDy=0;entryX=0.317;entryY=0.981;entryDx=0;entryDy=0;dashed=1;fontFamily=Times New Roman;fontSize=9;endArrow=open;endFill=0;startSize=10;endSize=8;sourcePerimeterSpacing=8;targetPerimeterSpacing=8;entryPerimeter=0;labelBackgroundColor=#EEEEEE;strokeColor=#182E3E;fontColor=#1A1A1A;" edge="1" parent="WIyWlLk6GJQsqaUBKTNV-1" source="QmGK-IJUaO_-9F__BT_G-9" target="QmGK-IJUaO_-9F__BT_G-6">
          <mxGeometry relative="1" as="geometry" />
        </mxCell>
        <mxCell id="QmGK-IJUaO_-9F__BT_G-9" value="Kelola history Proses" style="ellipse;whiteSpace=wrap;html=1;hachureGap=4;pointerEvents=0;fontFamily=Times New Roman;fontSize=10;fillColor=#F5AB50;strokeColor=#909090;fontColor=#1A1A1A;" vertex="1" parent="WIyWlLk6GJQsqaUBKTNV-1">
          <mxGeometry x="260" y="512" width="80" height="50" as="geometry" />
        </mxCell>
        <mxCell id="QmGK-IJUaO_-9F__BT_G-48" value="&lt;span style=&quot;background-color: rgb(255 , 255 , 255)&quot;&gt;&amp;lt;&amp;lt;include&amp;gt;&amp;gt;&lt;/span&gt;" style="edgeStyle=none;rounded=0;hachureGap=4;jumpSize=6;orthogonalLoop=1;jettySize=auto;html=1;exitX=0.5;exitY=0;exitDx=0;exitDy=0;dashed=1;fontFamily=Times New Roman;fontSize=9;endArrow=open;endFill=0;startSize=10;endSize=8;sourcePerimeterSpacing=8;targetPerimeterSpacing=8;entryX=0.442;entryY=0.993;entryDx=0;entryDy=0;entryPerimeter=0;labelBackgroundColor=#EEEEEE;strokeColor=#182E3E;fontColor=#1A1A1A;" edge="1" parent="WIyWlLk6GJQsqaUBKTNV-1" source="QmGK-IJUaO_-9F__BT_G-10" target="QmGK-IJUaO_-9F__BT_G-6">
          <mxGeometry relative="1" as="geometry">
            <mxPoint x="440" y="230" as="targetPoint" />
          </mxGeometry>
        </mxCell>
        <mxCell id="QmGK-IJUaO_-9F__BT_G-10" value="Kelola history unapproved" style="ellipse;whiteSpace=wrap;html=1;hachureGap=4;pointerEvents=0;fontFamily=Times New Roman;fontSize=10;fillColor=#F5AB50;strokeColor=#909090;fontColor=#1A1A1A;" vertex="1" parent="WIyWlLk6GJQsqaUBKTNV-1">
          <mxGeometry x="300" y="580" width="80" height="50" as="geometry" />
        </mxCell>
        <mxCell id="QmGK-IJUaO_-9F__BT_G-49" style="edgeStyle=none;rounded=0;hachureGap=4;jumpSize=6;orthogonalLoop=1;jettySize=auto;html=1;exitX=0.5;exitY=0;exitDx=0;exitDy=0;dashed=1;fontFamily=Times New Roman;fontSize=9;endArrow=open;endFill=0;startSize=10;endSize=8;sourcePerimeterSpacing=8;targetPerimeterSpacing=8;entryX=0.564;entryY=1.005;entryDx=0;entryDy=0;entryPerimeter=0;labelBackgroundColor=#EEEEEE;strokeColor=#182E3E;fontColor=#1A1A1A;" edge="1" parent="WIyWlLk6GJQsqaUBKTNV-1" source="QmGK-IJUaO_-9F__BT_G-11" target="QmGK-IJUaO_-9F__BT_G-6">
          <mxGeometry relative="1" as="geometry">
            <mxPoint x="450" y="230" as="targetPoint" />
          </mxGeometry>
        </mxCell>
        <mxCell id="QmGK-IJUaO_-9F__BT_G-11" value="Kelola history complete" style="ellipse;whiteSpace=wrap;html=1;hachureGap=4;pointerEvents=0;fontFamily=Times New Roman;fontSize=10;fillColor=#F5AB50;strokeColor=#909090;fontColor=#1A1A1A;" vertex="1" parent="WIyWlLk6GJQsqaUBKTNV-1">
          <mxGeometry x="334" y="650" width="80" height="50" as="geometry" />
        </mxCell>
        <mxCell id="QmGK-IJUaO_-9F__BT_G-50" value="&lt;span style=&quot;background-color: rgb(255 , 255 , 255)&quot;&gt;&amp;lt;&amp;lt;include&amp;gt;&amp;gt;&lt;/span&gt;" style="edgeStyle=none;rounded=0;hachureGap=4;jumpSize=6;orthogonalLoop=1;jettySize=auto;html=1;exitX=0.5;exitY=0;exitDx=0;exitDy=0;entryX=0.727;entryY=0.957;entryDx=0;entryDy=0;entryPerimeter=0;dashed=1;fontFamily=Times New Roman;fontSize=9;endArrow=open;endFill=0;startSize=10;endSize=8;sourcePerimeterSpacing=8;targetPerimeterSpacing=8;labelBackgroundColor=#EEEEEE;strokeColor=#182E3E;fontColor=#1A1A1A;" edge="1" parent="WIyWlLk6GJQsqaUBKTNV-1" source="QmGK-IJUaO_-9F__BT_G-12" target="QmGK-IJUaO_-9F__BT_G-6">
          <mxGeometry relative="1" as="geometry" />
        </mxCell>
        <mxCell id="QmGK-IJUaO_-9F__BT_G-12" value="Kelola activity" style="ellipse;whiteSpace=wrap;html=1;hachureGap=4;pointerEvents=0;fontFamily=Times New Roman;fontSize=10;fillColor=#F5AB50;strokeColor=#909090;fontColor=#1A1A1A;" vertex="1" parent="WIyWlLk6GJQsqaUBKTNV-1">
          <mxGeometry x="380" y="720" width="80" height="50" as="geometry" />
        </mxCell>
        <mxCell id="QmGK-IJUaO_-9F__BT_G-13" value="Logout" style="ellipse;whiteSpace=wrap;html=1;hachureGap=4;pointerEvents=0;fontFamily=Times New Roman;fontSize=10;fillColor=#F5AB50;strokeColor=#909090;fontColor=#1A1A1A;" vertex="1" parent="WIyWlLk6GJQsqaUBKTNV-1">
          <mxGeometry x="430" y="790" width="80" height="50" as="geometry" />
        </mxCell>
        <mxCell id="QmGK-IJUaO_-9F__BT_G-41" style="edgeStyle=none;rounded=0;hachureGap=4;jumpSize=6;orthogonalLoop=1;jettySize=auto;html=1;exitX=1;exitY=0.5;exitDx=0;exitDy=0;entryX=0;entryY=0;entryDx=0;entryDy=0;fontFamily=Times New Roman;fontSize=9;endArrow=block;endFill=0;startSize=10;endSize=10;sourcePerimeterSpacing=8;targetPerimeterSpacing=8;labelBackgroundColor=#EEEEEE;strokeColor=#182E3E;fontColor=#1A1A1A;" edge="1" parent="WIyWlLk6GJQsqaUBKTNV-1" source="QmGK-IJUaO_-9F__BT_G-23" target="QmGK-IJUaO_-9F__BT_G-8">
          <mxGeometry relative="1" as="geometry" />
        </mxCell>
        <mxCell id="QmGK-IJUaO_-9F__BT_G-23" value="Pengajuan KTP" style="ellipse;whiteSpace=wrap;html=1;hachureGap=4;pointerEvents=0;fontFamily=Times New Roman;fontSize=10;fillColor=#F5AB50;strokeColor=#909090;fontColor=#1A1A1A;" vertex="1" parent="WIyWlLk6GJQsqaUBKTNV-1">
          <mxGeometry x="160" y="260" width="64" height="40" as="geometry" />
        </mxCell>
        <mxCell id="QmGK-IJUaO_-9F__BT_G-42" style="edgeStyle=none;rounded=0;hachureGap=4;jumpSize=6;orthogonalLoop=1;jettySize=auto;html=1;exitX=1;exitY=0.5;exitDx=0;exitDy=0;entryX=0;entryY=0.5;entryDx=0;entryDy=0;fontFamily=Times New Roman;fontSize=9;endArrow=block;endFill=0;startSize=10;endSize=10;sourcePerimeterSpacing=8;targetPerimeterSpacing=8;labelBackgroundColor=#EEEEEE;strokeColor=#182E3E;fontColor=#1A1A1A;" edge="1" parent="WIyWlLk6GJQsqaUBKTNV-1" source="QmGK-IJUaO_-9F__BT_G-24" target="QmGK-IJUaO_-9F__BT_G-8">
          <mxGeometry relative="1" as="geometry" />
        </mxCell>
        <mxCell id="QmGK-IJUaO_-9F__BT_G-24" value="&lt;font style=&quot;font-size: 9px&quot;&gt;Pengajuan KK Baru&lt;/font&gt;" style="ellipse;whiteSpace=wrap;html=1;hachureGap=4;pointerEvents=0;fontFamily=Times New Roman;fontSize=10;fillColor=#F5AB50;strokeColor=#909090;fontColor=#1A1A1A;" vertex="1" parent="WIyWlLk6GJQsqaUBKTNV-1">
          <mxGeometry x="160" y="310" width="64" height="40" as="geometry" />
        </mxCell>
        <mxCell id="QmGK-IJUaO_-9F__BT_G-43" style="edgeStyle=none;rounded=0;hachureGap=4;jumpSize=6;orthogonalLoop=1;jettySize=auto;html=1;exitX=1;exitY=0.5;exitDx=0;exitDy=0;entryX=0;entryY=1;entryDx=0;entryDy=0;fontFamily=Times New Roman;fontSize=9;endArrow=block;endFill=0;startSize=10;endSize=10;sourcePerimeterSpacing=8;targetPerimeterSpacing=8;labelBackgroundColor=#EEEEEE;strokeColor=#182E3E;fontColor=#1A1A1A;" edge="1" parent="WIyWlLk6GJQsqaUBKTNV-1" source="QmGK-IJUaO_-9F__BT_G-25" target="QmGK-IJUaO_-9F__BT_G-8">
          <mxGeometry relative="1" as="geometry" />
        </mxCell>
        <mxCell id="QmGK-IJUaO_-9F__BT_G-25" value="Pengajuan Akta Lahir" style="ellipse;whiteSpace=wrap;html=1;hachureGap=4;pointerEvents=0;fontFamily=Times New Roman;fontSize=10;fillColor=#F5AB50;strokeColor=#909090;fontColor=#1A1A1A;" vertex="1" parent="WIyWlLk6GJQsqaUBKTNV-1">
          <mxGeometry x="160" y="360" width="64" height="40" as="geometry" />
        </mxCell>
        <mxCell id="QmGK-IJUaO_-9F__BT_G-44" style="edgeStyle=none;rounded=0;hachureGap=4;jumpSize=6;orthogonalLoop=1;jettySize=auto;html=1;exitX=1;exitY=0.5;exitDx=0;exitDy=0;entryX=0.5;entryY=1;entryDx=0;entryDy=0;fontFamily=Times New Roman;fontSize=9;endArrow=block;endFill=0;startSize=10;endSize=10;sourcePerimeterSpacing=8;targetPerimeterSpacing=8;labelBackgroundColor=#EEEEEE;strokeColor=#182E3E;fontColor=#1A1A1A;" edge="1" parent="WIyWlLk6GJQsqaUBKTNV-1" source="QmGK-IJUaO_-9F__BT_G-26" target="QmGK-IJUaO_-9F__BT_G-8">
          <mxGeometry relative="1" as="geometry" />
        </mxCell>
        <mxCell id="QmGK-IJUaO_-9F__BT_G-26" value="Pengajuan Surat Pindah" style="ellipse;whiteSpace=wrap;html=1;hachureGap=4;pointerEvents=0;fontFamily=Times New Roman;fontSize=10;fillColor=#F5AB50;strokeColor=#909090;fontColor=#1A1A1A;" vertex="1" parent="WIyWlLk6GJQsqaUBKTNV-1">
          <mxGeometry x="160" y="410" width="64" height="40" as="geometry" />
        </mxCell>
        <mxCell id="QmGK-IJUaO_-9F__BT_G-45" style="edgeStyle=none;rounded=0;hachureGap=4;jumpSize=6;orthogonalLoop=1;jettySize=auto;html=1;exitX=1;exitY=0.5;exitDx=0;exitDy=0;entryX=1;entryY=1;entryDx=0;entryDy=0;fontFamily=Times New Roman;fontSize=9;endArrow=block;endFill=0;startSize=10;endSize=10;sourcePerimeterSpacing=8;targetPerimeterSpacing=8;labelBackgroundColor=#EEEEEE;strokeColor=#182E3E;fontColor=#1A1A1A;" edge="1" parent="WIyWlLk6GJQsqaUBKTNV-1" source="QmGK-IJUaO_-9F__BT_G-27" target="QmGK-IJUaO_-9F__BT_G-8">
          <mxGeometry relative="1" as="geometry" />
        </mxCell>
        <mxCell id="QmGK-IJUaO_-9F__BT_G-27" value="Pengajuan SPPT/PBB" style="ellipse;whiteSpace=wrap;html=1;hachureGap=4;pointerEvents=0;fontFamily=Times New Roman;fontSize=10;fillColor=#F5AB50;strokeColor=#909090;fontColor=#1A1A1A;" vertex="1" parent="WIyWlLk6GJQsqaUBKTNV-1">
          <mxGeometry x="160" y="460" width="64" height="40" as="geometry" />
        </mxCell>
      </root>
    </mxGraphModel>
  </diagram>
</mxfile>
